<svg width="1024" height="1024" viewBox="0 0 100 100" xmlns="http://www.w3.org/2000/svg">
  <defs>
    <clipPath id="squircle">
      <path d="M50,2 C72,2 80,5 88,13 C96,21 98,29 98,50 C98,71 96,79 88,87 C80,95 72,98 50,98 C28,98 20,95 12,87 C4,79 2,71 2,50 C2,29 4,21 12,13 C20,5 28,2 50,2 Z"></path>
    </clipPath>
    <linearGradient id="bg" x1="0" y1="0" x2="100" y2="100" gradientUnits="userSpaceOnUse">
      <stop offset="0%" stop-color="#f0f6ff"></stop>
      <stop offset="100%" stop-color="#e0eeff"></stop>
    </linearGradient>
    <linearGradient id="w1" x1="0" y1="0" x2="100" y2="0" gradientUnits="userSpaceOnUse">
      <stop offset="0%" stop-color="#1e3a8a"></stop>
      <stop offset="100%" stop-color="#1d4ed8"></stop>
    </linearGradient>
    <linearGradient id="w2" x1="0" y1="0" x2="100" y2="0" gradientUnits="userSpaceOnUse">
      <stop offset="0%" stop-color="#2563eb"></stop>
      <stop offset="100%" stop-color="#3b82f6"></stop>
    </linearGradient>
  </defs>
  <g clip-path="url(#squircle)">
    <rect width="100" height="100" fill="url(#bg)"></rect>
    <path d="M0 60 C20 50 36 68 56 58 C76 48 88 64 100 56 L100 100 L0 100 Z" fill="url(#w1)"></path>
    <path d="M0 72 C16 64 34 78 52 68 C70 58 86 74 100 66 L100 100 L0 100 Z" fill="url(#w2)" opacity="0.7"></path>
    <text x="50" y="46" text-anchor="middle" font-family="&#39;Inter&#39;, system-ui, -apple-system, sans-serif" font-weight="800" font-size="32" fill="#0f2a5e" letter-spacing="-1">AL</text>
  </g>
</svg>